#!OML:ASF F:\VICON\USERDATA\INSTALL\rory3\rory3.ASF
:FULLY-SPECIFIED
:DEGREES
1458
root 1.46305 20.7667 4.18353 15.716 -4.1438 -3.97977
lowerback -14.179 -0.910266 2.70311
upperback -6.46186 -1.602 1.52081
thorax 1.10622 -0.838635 -0.174381
lowerneck -5.13003 -13.7259 -16.2589
upperneck 25.7463 -18.77 5.64877
head 11.3294 -9.68242 2.21258
rclavicle 5.97596e-015 -7.1314e-015
rhumerus -43.6551 8.59858 -85.4795
rradius 26.0561
rwrist 7.35611
rhand -22.3681 -47.1651
rfingers 7.12502
rthumb 4.05335 -77.1063
lclavicle 5.97596e-015 -7.1314e-015
lhumerus -46.5771 -7.70253 82.367
lradius 38.8338
lwrist 8.37024
lhand -36.4801 -40.1577
lfingers 7.12502
lthumb -9.57308 -10.3952
rfemur -26.3271 5.43019 15.2104
rtibia 27.415
rfoot 26.17 -7.63774
rtoes -19.0285
lfemur -23.6504 2.05709 -9.45196
ltibia 28.7278
lfoot 21.9496 7.51401
ltoes -15.6121
1459
root 1.47221 20.8773 4.16221 15.7452 -4.40986 -4.05986
lowerback -13.9909 -0.839188 2.67232
upperback -6.52587 -1.4973 1.56673
thorax 0.943112 -0.787737 -0.0894859
lowerneck -4.54979 -13.6779 -16.8746
upperneck 25.8758 -18.8758 6.17256
head 11.4123 -9.75511 2.49794
rclavicle -6.21202e-017 4.22417e-015
rhumerus -43.5072 8.34493 -85.4904
rradius 25.7211
rwrist 8.10966
rhand -22.7025 -47.6143
rfingers 7.12502
rthumb 3.73038 -77.5614
lclavicle -6.21202e-017 4.22417e-015
lhumerus -46.6375 -7.63641 82.4069
lradius 38.6158
lwrist 8.1929
lhand -36.9585 -39.4487
lfingers 7.12502
lthumb -10.0346 -9.70796
rfemur -26.8739 5.40482 15.3742
rtibia 28.3935
rfoot 26.0096 -8.40744
rtoes -17.8351
lfemur -24.152 2.3953 -9.46104
ltibia 29.5585
lfoot 21.6446 6.91989
ltoes -14.5502
1460
root 1.49177 20.9761 4.1403 15.6395 -4.37576 -4.11124
lowerback -13.534 -0.847599 2.8072
upperback -6.60875 -1.50491 1.57382
thorax 0.608073 -0.798724 -0.14892
lowerneck -4.33394 -13.6557 -17.0866
upperneck 26.2045 -18.9098 6.25187
head 11.5374 -9.79218 2.55701
rclavicle -9.56341e-015 -1.08089e-014
rhumerus -43.3704 8.31657 -85.6357
rradius 25.9014
rwrist 7.66142
rhand -21.4191 -49.8767
rfingers 7.12502
rthumb 4.96973 -79.7984
lclavicle -9.56341e-015 -1.08089e-014
lhumerus -46.8122 -7.73814 82.5427
lradius 38.1899
lwrist 7.97403
lhand -37.2867 -39.7669
lfingers 7.12502
lthumb -10.3512 -10.0416
rfemur -27.2179 4.84609 15.5881
rtibia 29.4281
rfoot 25.536 -8.54981
rtoes -16.9296
lfemur -24.5001 2.57414 -9.48936
ltibia 30.3067
lfoot 21.4961 5.06351
ltoes -14.9331
1461
root 1.50422 21.0668 4.11808 15.3463 -4.4457 -4.0582
lowerback -12.8736 -0.879094 2.71799
upperback -6.70561 -1.50769 1.56407
thorax 0.155334 -0.804187 -0.0949342
lowerneck -4.10293 -13.6238 -17.116
upperneck 26.4915 -18.9135 6.18462
head 11.6019 -9.81513 2.5486
rclavicle 9.60689e-015 1.02374e-014
rhumerus -43.4305 8.1244 -85.6588
rradius 25.772
rwrist 8.30383
rhand -21.5127 -50.0358
rfingers 7.12502
rthumb 4.87933 -79.9597
lclavicle 9.60689e-015 1.02374e-014
lhumerus -47.1806 -7.89485 82.6399
lradius 37.8038
lwrist 7.75011
lhand -37.3818 -40.4381
lfingers 7.12502
lthumb -10.4429 -10.7175
rfemur -27.3844 4.56666 15.6581
rtibia 30.3947
rfoot 25.1073 -8.05078
rtoes -16.9925
lfemur -24.6093 2.58368 -9.5486
ltibia 30.9808
lfoot 20.8243 3.14891
ltoes -16.4415
1462
root 1.50056 21.1428 4.09019 15.0398 -4.94664 -3.97474
lowerback -12.2679 -0.862189 2.27059
upperback -6.70149 -1.41695 1.59897
thorax -0.149942 -0.750312 0.214727
lowerneck -3.98399 -13.6134 -17.1702
upperneck 26.6117 -18.9428 6.23696
head 11.6423 -9.8344 2.57575
rclavicle -7.31e-015 1.35671e-014
rhumerus -43.279 7.85472 -85.622
rradius 25.448
rwrist 9.32395
rhand -21.9357 -49.3019
rfingers 7.12502
rthumb 4.47086 -79.2347
lclavicle -7.31e-015 1.35671e-014
lhumerus -47.3499 -7.82213 82.5217
lradius 37.4386
lwrist 7.48936
lhand -37.1404 -40.5324
lfingers 7.12502
lthumb -10.2101 -10.8002
rfemur -27.6272 5.01527 15.5787
rtibia 31.2777
rfoot 24.7816 -7.80605
rtoes -17.0561
lfemur -24.6692 2.63527 -9.60374
ltibia 31.6052
lfoot 20.1522 2.75685
ltoes -16.5562
1463
root 1.52729 21.2136 4.05383 14.6687 -4.78175 -4.06649
lowerback -11.4048 -0.958067 2.55096
upperback -6.62955 -1.54227 1.59512
thorax -0.549911 -0.823586 0.0555865
lowerneck -4.28062 -13.6821 -17.0748
upperneck 26.7712 -19.0173 6.22076
head 11.7585 -9.85001 2.51795
rclavicle 2.28944e-014 -9.0944e-015
rhumerus -42.8636 7.82502 -85.7111
rradius 24.982
rwrist 10.3161
rhand -20.2409 -51.5343
rfingers 7.12502
rthumb 6.10721 -81.4263
lclavicle 2.28944e-014 -9.0944e-015
lhumerus -47.2301 -7.63729 82.3274
lradius 36.9921
lwrist 7.28423
lhand -36.71 -39.8902
lfingers 7.12502
lthumb -9.79489 -10.138
rfemur -27.517 4.15553 15.864
rtibia 31.9886
rfoot 24.0492 -6.76243
rtoes -17.5693
lfemur -24.7299 2.29726 -9.49533
ltibia 32.1319
lfoot 19.7537 3.06273
ltoes -14.7261
1464
root 1.53234 21.2636 4.03497 14.0799 -4.93178 -4.47679
lowerback -10.5836 -0.9216 2.81825
upperback -6.37003 -1.49343 1.71193
thorax -0.727257 -0.803946 0.0444669
lowerneck -4.72692 -13.7579 -16.9329
upperneck 26.9998 -19.0796 6.17464
head 11.9208 -9.85237 2.43245
rclavicle -1.47598e-014 1.35422e-014
rhumerus -42.3376 7.91596 -85.8266
rradius 24.5885
rwrist 11.0201
rhand -21.8187 -49.7963
rfingers 7.12502
rthumb 4.58383 -79.7267
lclavicle -1.47598e-014 1.35422e-014
lhumerus -46.9178 -7.34321 82.0638
lradius 36.551
lwrist 7.08514
lhand -36.2736 -39.7352
lfingers 7.12502
lthumb -9.37381 -9.96364
rfemur -27.1569 4.19014 16.4334
rtibia 32.5755
rfoot 23.1107 -6.26218
rtoes -17.9551
lfemur -24.3187 2.26328 -8.98757
ltibia 32.5673
lfoot 19.0509 3.33961
ltoes -13.3828
1465
root 1.5489 21.3115 4.02743 13.4897 -4.98657 -4.57426
lowerback -9.88577 -0.980081 2.9749
upperback -6.15273 -1.56063 1.73202
thorax -0.885527 -0.841289 -0.0174195
lowerneck -4.94549 -13.7301 -16.9155
upperneck 27.0386 -19.0417 6.28556
head 11.9834 -9.81431 2.45935
rclavicle -1.03368e-014 -1.38155e-014
rhumerus -41.9756 7.88505 -85.8084
rradius 24.5283
rwrist 10.9845
rhand -22.8885 -48.1209
rfingers 7.12502
rthumb 3.5508 -78.0711
lclavicle -1.03368e-014 -1.38155e-014
lhumerus -46.7074 -6.87323 81.6881
lradius 36.0981
lwrist 6.82558
lhand -36.1206 -40.0638
lfingers 7.12502
lthumb -9.22613 -10.2857
rfemur -26.6584 3.86087 16.6044
rtibia 33.0164
rfoot 21.9781 -5.85144
rtoes -16.85
lfemur -23.8723 2.0012 -8.8551
ltibia 32.8943
lfoot 18.1252 3.55677
ltoes -14.6146
1466
root 1.55834 21.3474 4.01257 13.0097 -5.08139 -4.49416
lowerback -9.22549 -1.11612 2.80043
upperback -6.09765 -1.70207 1.76439
thorax -1.18474 -0.909516 0.115966
lowerneck -4.55205 -13.5993 -17.0701
upperneck 26.7952 -18.9481 6.53269
head 11.8439 -9.77812 2.62057
rclavicle 1.08866e-014 2.78299e-015
rhumerus -41.9196 7.9084 -85.8201
rradius 24.8021
rwrist 10.3256
rhand -22.347 -48.4054
rfingers 7.12502
rthumb 4.07371 -78.3462
lclavicle 1.08866e-014 2.78299e-015
lhumerus -46.8363 -6.3149 81.2767
lradius 35.7903
lwrist 6.62
lhand -36.0955 -39.3068
lfingers 7.12502
lthumb -9.20192 -9.52755
rfemur -26.3323 3.78914 16.5173
rtibia 33.358
rfoot 20.989 -5.66867
rtoes -15.1188
lfemur -23.5968 1.65087 -8.85523
ltibia 33.0762
lfoot 17.5365 4.0386
ltoes -15.5258
1467
root 1.56305 21.3679 3.99883 12.5142 -5.11355 -4.37062
lowerback -8.81081 -1.23781 2.5215
upperback -5.95439 -1.83151 1.78635
thorax -1.25406 -0.965636 0.292197
lowerneck -3.97384 -13.5 -17.152
upperneck 26.5742 -18.9039 6.64413
head 11.6614 -9.77789 2.72791
rclavicle 4.26548e-014 -2.2239e-014
rhumerus -41.8037 8.02984 -85.9425
rradius 25.1237
rwrist 9.63766
rhand -21.9113 -49.4313
rfingers 7.12502
rthumb 4.49443 -79.3636
lclavicle 4.26548e-014 -2.2239e-014
lhumerus -46.9436 -5.8233 80.9059
lradius 35.7083
lwrist 6.61868
lhand -35.698 -37.9157
lfingers 7.12502
lthumb -8.81843 -8.11992
rfemur -25.9952 3.83117 16.3926
rtibia 33.6001
rfoot 20.0108 -5.04377
rtoes -15.6844
lfemur -23.214 1.37006 -8.89102
ltibia 33.0953
lfoot 17.0141 4.26492
ltoes -16.1606
1468
root 1.57446 21.3845 3.99364 11.998 -5.20233 -4.23013
lowerback -8.47816 -1.30383 2.34053
upperback -5.73072 -1.90043 1.74381
thorax -1.19929 -0.993863 0.348726
lowerneck -3.67898 -13.4377 -17.1235
upperneck 26.469 -18.8946 6.76972
head 11.5723 -9.77104 2.79564
rclavicle -1.71762e-014 -1.56543e-015
rhumerus -41.5043 7.96084 -86.0053
rradius 25.3362
rwrist 9.09118
rhand -21.8758 -50.0558
rfingers 7.12502
rthumb 4.52867 -79.9873
lclavicle -1.71762e-014 -1.56543e-015
lhumerus -46.9192 -5.49004 80.5996
lradius 35.5826
lwrist 7.13065
lhand -35.0874 -37.0457
lfingers 7.12502
lthumb -8.22914 -7.226
rfemur -25.6334 3.8438 16.196
rtibia 33.7943
rfoot 18.9758 -4.4626
rtoes -16.0923
lfemur -22.6821 1.16849 -9.00591
ltibia 33.0383
lfoot 16.2054 4.64075
ltoes -17.2134
1469
root 1.58515 21.3936 3.97841 11.5932 -5.29768 -4.23416
lowerback -7.93091 -1.33924 2.27783
upperback -5.58581 -1.92786 1.72479
thorax -1.34795 -1.00632 0.37424
lowerneck -3.56148 -13.3619 -17.0929
upperneck 26.3775 -18.8877 7.071
head 11.5415 -9.74152 2.91153
rclavicle 6.18873e-015 -1.11319e-014
rhumerus -41.15 7.55687 -85.8787
rradius 25.4933
rwrist 8.97134
rhand -22.4203 -49.1799
rfingers 7.12502
rthumb 4.00289 -79.122
lclavicle 6.18873e-015 -1.11319e-014
lhumerus -46.7187 -5.3044 80.3168
lradius 35.214
lwrist 7.97128
lhand -34.6362 -35.6452
lfingers 7.12502
lthumb -7.7936 -5.80883
rfemur -25.4598 4.07362 16.1103
rtibia 33.9807
rfoot 18.147 -4.53967
rtoes -13.7419
lfemur -22.3319 1.00286 -8.93901
ltibia 32.947
lfoot 15.6135 5.40495
ltoes -16.9579
1470
root 1.5893 21.3825 3.95507 11.3349 -5.31596 -4.35835
lowerback -7.44052 -1.35899 2.32756
upperback -5.48015 -1.94235 1.70702
thorax -1.51085 -1.01564 0.338746
lowerneck -3.68078 -13.3 -16.8452
upperneck 26.5174 -18.8255 7.07654
head 11.5804 -9.68744 2.8818
rclavicle -3.28616e-015 -1.09829e-014
rhumerus -40.9737 7.10281 -85.8006
rradius 24.8119
rwrist 10.9319
rhand -26.1996 -44.522
rfingers 7.12502
rthumb 0.352933 -74.5015
lclavicle -3.28616e-015 -1.09829e-014
lhumerus -46.4129 -5.21265 79.9919
lradius 34.7822
lwrist 8.51825
lhand -34.3947 -34.3583
lfingers 7.12502
lthumb -7.56057 -4.51344
rfemur -25.4305 4.40819 16.1908
rtibia 34.0897
rfoot 17.7523 -4.31192
rtoes -12.0563
lfemur -22.1774 1.04414 -8.73441
ltibia 32.8155
lfoot 15.4791 5.52923
ltoes -17.3603
1471
root 1.59038 21.3538 3.94017 11.1952 -5.46948 -4.22629
lowerback -7.32959 -1.36955 2.14179
upperback -5.42824 -1.94424 1.61211
thorax -1.51455 -1.01279 0.34672
lowerneck -3.62965 -13.2092 -16.6062
upperneck 26.7017 -18.6887 6.85744
head 11.5709 -9.62957 2.79807
rclavicle -5.90142e-016 2.0773e-014
rhumerus -40.8313 7.02155 -86.0424
rradius 25.7131
rwrist 8.80789
rhand -24.407 -47.5182
rfingers 7.12502
rthumb 2.08424 -77.4878
lclavicle -5.90142e-016 2.0773e-014
lhumerus -46.4028 -5.18544 79.7565
lradius 34.5289
lwrist 8.9216
lhand -34.5863 -34.3024
lfingers 7.12502
lthumb -7.74552 -4.46431
rfemur -25.4949 4.70211 15.993
rtibia 34.0877
rfoot 17.4778 -3.44647
rtoes -12.6947
lfemur -22.0941 1.31385 -8.87792
ltibia 32.6399
lfoot 15.6177 5.12813
ltoes -18.9639
1472
root 1.59721 21.3226 3.94181 11.1968 -5.70128 -4.1208
lowerback -7.61384 -1.35717 1.99165
upperback -5.33861 -1.93073 1.56311
thorax -1.26081 -1.00081 0.371192
lowerneck -3.43906 -13.1377 -16.5516
upperneck 26.679 -18.6254 6.87201
head 11.5116 -9.60313 2.82239
rclavicle 2.60284e-015 2.88238e-015
rhumerus -40.5733 6.8876 -86.0602
rradius 25.7187
rwrist 9.48129
rhand -23.7855 -47.71
rfingers 7.12502
rthumb 2.68453 -77.6729
lclavicle 2.60284e-015 2.88238e-015
lhumerus -46.3743 -5.22379 79.6935
lradius 34.3592
lwrist 9.54547
lhand -34.9105 -34.0043
lfingers 7.12502
lthumb -8.05841 -4.17797
rfemur -25.6217 4.85517 15.7914
rtibia 33.9581
rfoot 16.9912 -2.57617
rtoes -13.2917
lfemur -22.0627 1.55004 -9.03344
ltibia 32.4141
lfoot 15.8655 5.05249
ltoes -19.6972
